/* XPM */
static char *com.ds_xpm[] = {
/* width height num_colors chars_per_pixel */
"    44    31      256            2",
/* colors */
"`` c #042e51",
"`. c #149ae4",
"`# c #9cb6cc",
"`a c #549ec4",
"`b c #0c66a8",
"`c c #ccdeec",
"`d c #54bef4",
"`e c #8cdaf9",
"`f c #3c72a4",
"`g c #1482cc",
"`h c #acdaec",
"`i c #54aedf",
"`j c #044a7f",
"`k c #74bee4",
"`l c #349edc",
"`m c #ccf2fc",
"`n c #74aed4",
"`o c #34b6f4",
"`p c #2c6694",
"`q c #8ccef2",
"`r c #acf2fc",
"`s c #74cefa",
"`t c #3c86b9",
"`u c #9ceafc",
"`v c #64aedc",
"`w c #34a6ec",
"`x c #ecf2fc",
"`y c #045a9c",
"`z c #9cdaf5",
"`A c #0476bc",
"`B c #2c82bc",
"`C c #accadc",
"`D c #5492b8",
"`E c #043e68",
"`F c #ace6fc",
"`G c #044e94",
"`H c #6caad4",
"`I c #a4cee8",
"`J c #7cd6fc",
"`K c #3c92c4",
"`L c #348ec8",
"`M c #54a6d6",
"`N c #449ed0",
"`O c #dcf2fc",
"`P c #64b6e1",
"`Q c #146aa4",
"`R c #64beec",
"`S c #74c6ec",
"`T c #9ce2fc",
"`U c #043e7c",
"`V c #04528c",
"`W c #cceafc",
"`X c #54b6e4",
"`Y c #2476a4",
"`Z c #8cd2f4",
"`0 c #44a6d8",
"`1 c #ecfafc",
"`2 c #bce6fc",
"`3 c #64c6f4",
"`4 c #8ce2fc",
"`5 c #bce2f4",
"`6 c #84cef2",
"`7 c #4c8eb8",
"`8 c #a4daf0",
".` c #2c8acc",
".. c #649ebc",
".# c #ace2fc",
".a c #0c4a80",
".b c #84b2d4",
".c c #4cbef4",
".d c #bceefc",
".e c #147ac4",
".f c #044674",
".g c #e4fafc",
".h c #6cb6df",
".i c #1c6ea0",
".j c #dceaf4",
".k c #347aac",
".l c #4ca6d9",
".m c #043664",
".n c #8cc2e1",
".o c #94daf6",
".p c #34a2dc",
".q c #44aeec",
".r c #3c8ebc",
".s c #0c3e64",
".t c #4ca2cf",
".u c #6cbee8",
".v c #84caec",
".w c #fcfafc",
".x c #54a2cc",
".y c #2492d4",
".z c #5cb2de",
".A c #044a8c",
".B c #7cbee0",
".C c #d4fafc",
".D c #7ccef4",
".E c #6caed4",
".F c #145e94",
".G c #3486b7",
".H c #6496b4",
".I c #043e74",
".J c #b4e6fc",
".K c #045694",
".L c #9cd6f0",
".M c #84d6f7",
".N c #4492c0",
".O c #3496d0",
".P c #64a6cc",
".Q c #e4f2fc",
".R c #7cc6ec",
".S c #247eb6",
".T c #94d2f4",
".U c #bcf6fc",
".V c #146eac",
".W c #9cc2dc",
".X c #4cb6e8",
".Y c #249ae4",
".Z c #046ebc",
".0 c #3c7ea8",
".1 c #b4def0",
".2 c #3c9ad4",
".3 c #74b6d4",
".4 c #94cae4",
".5 c #448ab4",
".6 c #9cdefb",
".7 c #bcd2dc",
".8 c #5c96bc",
"#` c #44a2dc",
"#. c #248acc",
"## c #147ec4",
"#a c #1ca2ec",
"#b c #346e9c",
"#c c #b4d2e4",
"#d c #b4fafc",
"#e c #a4f2fc",
"#f c #0462ac",
"#g c #04467c",
"#h c #1c6694",
"#i c #2c76ac",
"#j c #1c76b4",
"#k c #cce6f4",
"#l c #3ca6dc",
"#m c #348abc",
"#n c #0c5694",
"#o c #0c6eac",
"#p c #0c76bc",
"#q c #5cb6ec",
"#r c #c4eafb",
"#s c #6ccaf8",
"#t c #94c6dc",
"#u c #4caee4",
"#v c #5c9ac4",
"#w c #1c86cc",
"#x c #d4f2fc",
"#y c #7caed4",
"#z c #f4f6fc",
"#A c #b4cedc",
"#B c #a4e2fc",
"#C c #0c528c",
"#D c #d4eefc",
"#E c #247ab4",
"#F c #44aae4",
"#G c #f4fbfc",
"#H c #a4defc",
"#I c #c4eefc",
"#J c #043a74",
"#K c #6cc2f4",
"#L c #1c6294",
"#M c #4496cc",
"#N c #c4fafc",
"#O c #2c9ee4",
"#P c #74aacc",
"#Q c #b4e2f7",
"#R c #447ea4",
"#S c #1c7ebc",
"#T c #5cbef4",
"#U c #94e2fc",
"#V c #649ecc",
"#W c #3ca2dc",
"#X c #448ebc",
"#Y c #5ca2cc",
"#Z c #3486c4",
"#0 c #0456a4",
"#1 c #04468c",
"#2 c #348acc",
"#3 c #8cdefc",
"#4 c #acdef4",
"#5 c #54b2e4",
"#6 c #044e84",
"#7 c #74c2ec",
"#8 c #74d2fc",
"a` c #3c8abc",
"a. c #5496bc",
"a# c #044264",
"aa c #a4d2ec",
"ab c #3c96cc",
"ac c #3492cc",
"ad c #54aadc",
"ae c #44a2d4",
"af c #64bae4",
"ag c #74caf4",
"ah c #54baec",
"ai c #8cd6f7",
"aj c #44aadc",
"ak c #84d2f4",
"al c #a4def4",
"am c #84b6d7",
"an c #6cbae0",
"ao c #dceefb",
"ap c #4caadc",
"aq c #043a6a",
"ar c #94defc",
"as c #6cc2ec",
"at c #7cc2e4",
"au c #7cd2fc",
"av c #6cb2d8",
"aw c #b4eafc",
"ax c #84dafc",
"ay c #64aad4",
"az c #e4f6fc",
"aA c #7ccaef",
"aB c #1472b0",
"aC c #3c9eda",
"aD c #94ceec",
"aE c #0c7ac4",
"aF c #74b2d4",
"aG c #64b2dc",
"aH c #ecf6fc",
"aI c #045e9c",
"aJ c #2c86bc",
"aK c #aceafc",
"aL c #045294",
"aM c #7cdafc",
"aN c #dcf6fc",
"aO c #64c2ec",
"aP c #04427c",
"aQ c #04568c",
"aR c #cceefc",
"aS c #ecfefc",
"aT c #bceafc",
"aU c #bcf2fc",
"aV c #e4fefc",
"aW c #347eac",
"aX c #44b2ec",
"aY c #fcfefc",
"aZ c #2496d4",
"a0 c #044e8c",
"a1 c #d4fefc",
"a2 c #044274",
"a3 c #94d6f4",
"a4 c #9cc6dc",
"a5 c #5cbaec",
"a6 c #5c9ec4",
"a7 c #d4f6fc",
"a8 c #a4e6fc",
/* pixels */
"#G.w.w.w.w.w.w.w.w.w.w.w.w.w.w.waz`x.w.w.w.w.w.w.w.w.w.w.w.w.w.w.w.w.waY.w.waY.w.w.w.w.w",
".w.waYaY.w.waY.waY.waY.w.waY.w.waHaH.waY.waY.waY.waY.waY.waY.waY.waY.w.waY.waY.waY.waY.w",
".w.w.w.waY.w.w.w.w.w.waY.w.w#G.w#GaH.w.w.w.w.w.w.w.w.w.w.w.waY.w.waY.waY.w.w.waY.w.waY.w",
"aY.w#G.w.waY.waY.waY.w.w#GaY.w.w.w.waY.waY.waY.waY.waY.waY.waY.waY.w.waY.waYaY.waYaY.w.w",
".w.waYaY.w.w#G.w.w#G.waY.w.waY.waY.w.w.w#G.w.w#G.w.w#G.w.w#G.waY#G.waY#G.w.w#GaY.w#GaY.w",
".w.w.waY#G.waY.waY.waY.waY.waY.w.waY#GaY.waY.waY.waY.waY.waY.w.w.w.w.w.waY.w.waY.w.w.waY",
"aYaY.waY.waY.w.w.waY#G.w.w#GaY.w#G.w.w.w.w.w.w.w.w.w.w.w.w.w.w.waY#G#G.w.waY.w.waY.w.w.w",
".w.waY.waY.w#GaY.w.waY.waY.w.waY.waY.waY.w#GaY.w#GaY.w#GaY.w#G.w.w.w.w.w.w#GaY.w#GaY.waY",
"aY.w.w.waY.w.w.w.w#G.waY.waY.w#G.w.waY#G.w.w.w.w.w.w.w.w.waYaY.waY.waY#G.w.w.waY.w.w.w.w",
"aHaH#G#G#G.w#G.w.w.w.w.w#G.waYaY.w.w#GaYaY.waY.w.w.waY.w.w.waY#G.w.w.w.waYaY.w.waY#GaY.w",
"`z#Hal#Q#raR#Dao`OazaH#G.w.waH`x#GaYaYaY.w.w.w#GaY.w#G.waY#G.w.waY.w#G.w.w.w#G.w.w.w#G#z",
"`N`M`M`P`Saka3ar`z.Jao#z.waY#D`s.L#H`2.Q#G.waY.w.w.w.w.w.waYaY.w.waY.waY.waY.waY.w.w.Q#r",
"#i.G`K.t.z.uaA`6ak`z#r`x.waY#z.T`6`z#QaRaz#z#G.w.w.w#G.w.waY.w#G.w.w.w#G.w.w.w.waYaH#B#5",
".G.r.x.z#7`6`z.##Q`2`W`OaH#G.waY.waYaY.waY.waYaYaY#G`xaHaH.waY.waYaYaY.waY.w#G.w.w#r`NaQ",
".xaG#7`Z`z`FaT`W#D`O.Q`x#z.w.w.waY.waYaYaY.waHaH`x`O#D#D`xaH#z.w#G#zaH.Q.w.waY.waY.La2a#",
"an.R`Z.o`F`2#D.QaH#z.waYaY.w#GaYaY.w`1#D#r`Wao#D#r.J#k.Q.Q#x.QaH#D.Q.Q.J.QaY.waY.waz.0``",
".Rak.o.#aR`x#G.w.waY.w.w.waYaYaR#Q.o`2.##r#x.J.o#H#r.QaR.J#DaH#D#r`xao#r#D#G.waY#GaY.g`7",
"al#r`O#z.waY.w.waY#G`1aY`2.h.n`6alai`2aNaTasag.##raR#H.M#raH#D.6`W.Q#rao`x`xaY.w.w.waY`1",
"#G.waYaYaY.w.waYaY`D#i`Da6aD.Baf`h#x.Japap`Z.#.#awaA`RaTaHaz.6.6.Qao.##D#z`x.waY.w.w.waY",
"aY#G#r`5`2aYaYaz`5`B.NaW.k.W.j#x`Z#m`t.3`q.6.o`T#u#u#r.Q`O#QaO#r.Q`W.6#DaHaoaHaYaYaY.w.w",
"#k#Kaxar.q.lakax`0`S.U#e`S.taW#v#R#ba``8.J#B`Z#`ab#4`O`WaR#u#7#x#D`2ai`O.Q#D`2aYaY.w#GaY",
".E`y.``L#w.2`d.c#.`b.S.h`4at#L.A`HaS.1`M.x.B`t`y`8#Dawaw.u#l#I#xaRalau.#`5#Q`6`xaYaY.waY",
"#S#g```U.Yaxar.D#s.c.y`V#n#C`D#X#M`v.L.Caa`b#m.7.W.3.b.n`l`M`I#c`c.4`k`z.L`q.l`IaY.waY.w",
"ada0```E`j.Z.Y#s`JaX.i`G#Zai.Ua8#7.N#i#m.Faq#PaRaU#r`8`B#.#r#raa`Ca.aGaR#I`Fai`M#GaYaYaY",
"aY#t#L.I.Aa2.I#f#oaP`Q`R`u#B.o.6ar`r`P#0#m.0#f#f`fay`PaB.5#y.b.W.1a6..a6aF.P#YacaoaY.waY",
".waYaN.h.VaP`E`jaq`U`waMaiaxal.J#3`iaLae#G#G#Q`H`p`yaLabaz.j.7`#.b#E.E`6`q.z`K#j.naY#GaY",
".w#GaYaYaR`v.V`U.m`E#g#p`lah.D`s`LaPab`maH`Oaz`m#N`X#1#S`q.Ja7aVa1`7aG`FaUaxagad#5#GaYaY",
"#GaY.w.waYaYaR`a.a.ma2`VaL`y##`Q#J.Oa8aT.J.#.o.6.M#S.r.Bad`laCap`0aJ..`L#s#q#W.2#u`OaYaY",
".M`OaY.w.w.waYaY#r#YaB`Ga0`j.A.I`j#Oax#U#B`Farau.`.Kar#G#G.Q`h.v.2#``k`0ag.XaZ#p`A.TaY.w",
"`.aX`F`1aY.w.w.waYaY`man.S.Ka2a2`E#gaE`l#l#Tau.p`U.S#UawaT#xaNaSa3#FaAar.d#U`R`l`g`0#GaY",
"`o`.#a`saR#G.waY.w.waYaY`O.R.ia2`j#ga0`G#g`yaE.Kaq.p`Tar.Marar`F#q#W`3a3aw`ea5aC.O#WaRaY"
};
