/* XPM */
static char * alt16_xpm[] = {
"22 16 236 2",
"  	c None",
". 	c #FAFAFB",
"+ 	c #FDFBFC",
"@ 	c #FDFBFB",
"# 	c #FEFCFC",
"$ 	c #FEFBFC",
"% 	c #FAFBFB",
"& 	c #E6F4FA",
"* 	c #FEFCFD",
"= 	c #F5F7F9",
"- 	c #ECF2F6",
"; 	c #EFF4F8",
"> 	c #FFFFFF",
", 	c #FBFBFC",
"' 	c #F6F9FB",
") 	c #FBFAFB",
"! 	c #FFFEFE",
"~ 	c #D8E5EE",
"{ 	c #9CC2D8",
"] 	c #A2C6DA",
"^ 	c #99C1D6",
"/ 	c #A0C4D9",
"( 	c #BDD6E4",
"_ 	c #FFFCFD",
": 	c #FBFBFB",
"< 	c #FCFBFD",
"[ 	c #FFFDFC",
"} 	c #FEFCFB",
"| 	c #FCFBFC",
"1 	c #92CEEC",
"2 	c #A0D7F1",
"3 	c #BBE5F8",
"4 	c #C9EAFA",
"5 	c #D5EFFB",
"6 	c #F1F7FA",
"7 	c #FEFBFB",
"8 	c #DAEFFA",
"9 	c #E0F1FA",
"0 	c #F2F8FB",
"a 	c #FCFAFB",
"b 	c #EEF8FC",
"c 	c #2F80AF",
"d 	c #4A9FCC",
"e 	c #69BCE4",
"f 	c #84D0F0",
"g 	c #97DAF6",
"h 	c #D9EFFB",
"i 	c #FDFAFB",
"j 	c #CCE9F8",
"k 	c #A7DEF7",
"l 	c #CFEEFB",
"m 	c #F0F7FB",
"n 	c #FFFCFC",
"o 	c #F7F9FA",
"p 	c #FFFBFC",
"q 	c #F0F7FD",
"r 	c #6BB7DE",
"s 	c #56A6D1",
"t 	c #78C5E9",
"u 	c #A0DDF8",
"v 	c #C4EAFC",
"w 	c #DBF0FC",
"x 	c #E9F4FB",
"y 	c #F8F9FB",
"z 	c #FFFFFD",
"A 	c #FFFFFE",
"B 	c #FAFDFE",
"C 	c #F4FAFD",
"D 	c #DFF2FB",
"E 	c #DAEFFB",
"F 	c #EBF5FA",
"G 	c #F7FAFC",
"H 	c #F4F8FB",
"I 	c #E6F4FB",
"J 	c #D1E7F3",
"K 	c #085078",
"L 	c #7ECCEF",
"M 	c #A9E2FA",
"N 	c #DFF2FC",
"O 	c #F7F9FC",
"P 	c #FCFEFF",
"Q 	c #E4F6FC",
"R 	c #94D5F3",
"S 	c #CEEFFD",
"T 	c #D1F0FE",
"U 	c #9ADAF7",
"V 	c #C2E9FC",
"W 	c #D0EEFC",
"X 	c #CBEDFB",
"Y 	c #DDF2FA",
"Z 	c #D8EFFB",
"` 	c #CEEDFC",
" .	c #E8F4FC",
"..	c #FDFDFE",
"+.	c #82B1CA",
"@.	c #EFF7FC",
"#.	c #FBFDFE",
"$.	c #C6DDEB",
"%.	c #82B9D6",
"&.	c #5FAED8",
"*.	c #71B9DF",
"=.	c #BAE1F4",
"-.	c #88CDEF",
";.	c #65BCE8",
">.	c #A6E1FC",
",.	c #9AD9F7",
"'.	c #8AD3F6",
").	c #E0F3FB",
"!.	c #9BDCFA",
"~.	c #D7EEFB",
"{.	c #C3EAFC",
"].	c #F1F5FB",
"^.	c #B5DCF3",
"/.	c #83D0FB",
"(.	c #62AFE0",
"_.	c #93D5F6",
":.	c #4197CB",
"<.	c #6EBCE0",
"[.	c #7CC5E7",
"}.	c #6AA6CC",
"|.	c #6CA4C7",
"1.	c #63A9D1",
"2.	c #9DD7F1",
"3.	c #6BBCE6",
"4.	c #83C8EC",
"5.	c #CAEEFC",
"6.	c #92D2F3",
"7.	c #A6DDF8",
"8.	c #C2E8FB",
"9.	c #B0E5FB",
"0.	c #E1F2FC",
"a.	c #ECF9FE",
"b.	c #FFFDFD",
"c.	c #2E7AAA",
"d.	c #00437C",
"e.	c #5BBEF6",
"f.	c #7DD3FA",
"g.	c #4BB7F5",
"h.	c #126EAD",
"i.	c #2070A7",
"j.	c #1F6CA0",
"k.	c #7DC0E3",
"l.	c #BCEBFE",
"m.	c #4D9CCD",
"n.	c #3A85B3",
"o.	c #8ABAD8",
"p.	c #A5D7EF",
"q.	c #50ABDD",
"r.	c #CCE7F4",
"s.	c #C8E5F5",
"t.	c #7ECBF1",
"u.	c #8FD2F4",
"v.	c #70B3D9",
"w.	c #93C1DC",
"x.	c #185682",
"y.	c #00488C",
"z.	c #237BB6",
"A.	c #3285BD",
"B.	c #2F89C1",
"C.	c #83CDEF",
"D.	c #B6F3FF",
"E.	c #76C8F0",
"F.	c #277EB5",
"G.	c #31719D",
"H.	c #5EA8D8",
"I.	c #7DB6D9",
"J.	c #4A9BCA",
"K.	c #75AED3",
"L.	c #A5CAE0",
"M.	c #6EA9CE",
"N.	c #7FBBD9",
"O.	c #94CCE8",
"P.	c #46A1D5",
"Q.	c #E4F0F7",
"R.	c #E3F1F8",
"S.	c #75B0D3",
"T.	c #004985",
"U.	c #003764",
"V.	c #1E79B3",
"W.	c #57BCF1",
"X.	c #87D8FF",
"Y.	c #2D7CAE",
"Z.	c #5DA6D3",
"`.	c #E8F8FD",
" +	c #BEE3F6",
".+	c #5AA9D7",
"++	c #055794",
"@+	c #ADE1FB",
"#+	c #C2E4F2",
"$+	c #72AFD4",
"%+	c #93D5F3",
"&+	c #95DBF7",
"*+	c #54A9DA",
"=+	c #A2D1EB",
"-+	c #FFFEFF",
";+	c #C6EAFA",
">+	c #D4EAF4",
",+	c #4A83A8",
"'+	c #075995",
")+	c #004D8B",
"!+	c #004F8A",
"~+	c #0C68A6",
"{+	c #9EE7FF",
"]+	c #A9E5FD",
"^+	c #89D8F9",
"/+	c #2E8FC9",
"(+	c #9AD2ED",
"_+	c #93CBEA",
":+	c #68B8E4",
"<+	c #429DD3",
"[+	c #53A5D4",
"}+	c #57BCEE",
"|+	c #2A93D3",
"1+	c #6BB5DF",
"2+	c #FBFCFE",
"3+	c #2DABED",
"4+	c #83D0F5",
"5+	c #EDF8FC",
"6+	c #FEFFFF",
"7+	c #D4EBF7",
"8+	c #67ABD2",
"9+	c #0C5384",
"0+	c #014678",
"a+	c #0F68AA",
"b+	c #237CB8",
"c+	c #2C8DC9",
"d+	c #1E76AE",
"e+	c #A5E6FE",
"f+	c #AAE5FC",
"g+	c #BBEBFD",
"h+	c #5FB7E7",
"i+	c #7BCFF7",
"j+	c #A2E3FD",
"k+	c #45A9E4",
"l+	c #3E9DD6",
"m+	c #EBF4FB",
". + @ # $ + + % & @ + + + + + + + * + * + + ",
"$ * = - ; > , > ' + + + + + + * * * * * * + ",
") ! ~ { ] ^ / ( + + + + + + + * + + * * + + ",
"* * ! > > ! > _ + + + + + + + + : . * * + + ",
"< [ _ } # * + * * + + + | + + + + + + + + + ",
"1 2 3 4 5 6 7 8 9 0 + + a $ * + + + + + + b ",
"c d e f g h i j k l m # n o + * $ p + + q r ",
"s t u v w x y z A B C q D E F G H I G * J K ",
"L M N O ! > P Q R S T U V W X Y Z `  .* ..+.",
"@.# #.> $.%.&.*.=.-.;.>.,.'.).!.~.{.].* * > ",
"^./.(._.:.<.[.}.|.1.2.3.4.5.6.7.8.9.0.a.b.* ",
"c.d.e.f.g.h.i.j.k.l.m.n.o.p.q.r.s.t.u.v.> * ",
"w.x.y.z.A.B.C.D.E.F.G.H.I.J.K.L.M.N.O.P.Q.! ",
"b.R.S.T.U.V.W.X.Y.Z.`. +.+++@+#+$+%+&+*+=+-+",
";+b.> >+,+'+)+!+~+{+]+^+/+(+_+:+<+[+}+|+1+2+",
"3+4+5+b.6+7+8+9+0+a+b+c+d+e+f+g+h+i+j+k+l+m+"};
